<?xml version="1.0" encoding="UTF-8"?>
<!--Generator: Apple Native CoreSVG 232.5-->
<!DOCTYPE svg
PUBLIC "-//W3C//DTD SVG 1.1//EN"
       "http://www.w3.org/Graphics/SVG/1.1/DTD/svg11.dtd">
<svg version="1.1" xmlns="http://www.w3.org/2000/svg" xmlns:xlink="http://www.w3.org/1999/xlink" width="24.5508" height="24.248">
 <g transform="scale(0.53)">
  <rect height="24.248" opacity="0" width="24.5508" x="0" y="0"/>
  <path d="M18.0176 24.248C20.0977 24.248 21.5625 23.6719 22.8418 22.2754C22.9199 22.1777 22.998 22.0898 23.0762 22.002C23.8379 21.1816 24.1895 20.3516 24.1895 19.5703C24.1895 18.7207 23.7012 17.9297 22.6855 17.2266L19.0332 14.6973C17.9688 13.9551 16.6895 13.8477 15.6152 14.9219L14.6777 15.8398C14.3945 16.123 14.1113 16.1621 13.7891 15.9766C13.1543 15.5859 11.7676 14.4238 10.7422 13.3984C9.63867 12.3047 8.76953 11.3086 8.27148 10.4492C8.08594 10.127 8.11523 9.85352 8.39844 9.57031L9.32617 8.63281C10.3906 7.54883 10.293 6.28906 9.55078 5.21484L7.02148 1.5625C6.31836 0.537109 5.52734 0.078125 4.67773 0.0585938C3.89648 0.0390625 3.05664 0.419922 2.24609 1.17188C2.14844 1.25 2.06055 1.32812 1.97266 1.40625C0.585938 2.67578 0 4.14062 0 6.20117C0 9.75586 2.26562 14.0625 6.23047 18.0176C10.166 21.9531 14.4629 24.248 18.0176 24.248ZM18.0273 22.5781C14.8145 22.627 10.7617 20.1758 7.46094 16.8945C4.15039 13.5938 1.62109 9.41406 1.66992 6.20117C1.68945 4.79492 2.17773 3.58398 3.18359 2.66602C3.25195 2.60742 3.32031 2.55859 3.38867 2.49023C3.81836 2.09961 4.26758 1.9043 4.6582 1.9043C5.04883 1.9043 5.38086 2.07031 5.64453 2.46094L8.08594 6.11328C8.37891 6.55273 8.42773 7.05078 7.94922 7.51953L6.88477 8.57422C6.09375 9.36523 6.13281 10.3711 6.68945 11.1621C7.34375 12.0801 8.53516 13.457 9.60938 14.5312C10.6934 15.6152 12.168 16.9043 13.0859 17.5488C13.877 18.1152 14.8828 18.1543 15.6738 17.3633L16.7285 16.2988C17.1973 15.8203 17.6953 15.8594 18.1348 16.1523L21.7871 18.6035C22.1777 18.8672 22.3438 19.1992 22.3438 19.5898C22.3438 19.9805 22.1387 20.4297 21.748 20.8691C21.6895 20.9375 21.6406 20.9961 21.582 21.0645C20.6641 22.0801 19.4336 22.5586 18.0273 22.5781Z" fill-opacity="0.85"/>
 </g>
</svg>
