<?xml version="1.0" encoding="UTF-8"?>
<!--Generator: Apple Native CoreSVG 232.5-->
<!DOCTYPE svg
PUBLIC "-//W3C//DTD SVG 1.1//EN"
       "http://www.w3.org/Graphics/SVG/1.1/DTD/svg11.dtd">
<svg version="1.1" xmlns="http://www.w3.org/2000/svg" xmlns:xlink="http://www.w3.org/1999/xlink" width="24" height="24">
 <g transform="scale(2.3)">
  <rect height="24" opacity="0" width="24" x="0" y="0"/>
  <path d="M6.29883 17.5586C9.85352 21.1133 14.248 23.8965 17.8613 23.8965C19.4922 23.8965 20.918 23.3301 22.0703 22.0801C22.7148 21.3672 23.1738 20.498 23.1738 19.6387C23.1738 19.0332 22.9395 18.4375 22.334 18.0176L18.4766 15.293C17.9297 14.9023 17.4512 14.707 17.002 14.707C16.4453 14.707 15.918 15.0195 15.332 15.5859L14.4238 16.4844C14.2871 16.6211 14.1211 16.6699 13.9453 16.6699C13.7695 16.6699 13.5938 16.6016 13.457 16.543C12.7051 16.1426 11.3477 15.0391 10.0879 13.7695C8.81836 12.5098 7.70508 11.1719 7.32422 10.4004C7.25586 10.2637 7.19727 10.0977 7.19727 9.92188C7.19727 9.76562 7.24609 9.60938 7.38281 9.46289L8.27148 8.53516C8.83789 7.93945 9.15039 7.41211 9.15039 6.85547C9.15039 6.39648 8.94531 5.92773 8.56445 5.37109L5.89844 1.61133C5.44922 0.986328 4.82422 0.722656 4.15039 0.722656C3.33984 0.722656 2.49023 1.10352 1.74805 1.81641C0.537109 2.99805 0 4.44336 0 6.03516C0 9.6582 2.73438 14.0039 6.29883 17.5586Z" fill="#ffffff" fill-opacity="0.85"/>
  <path d="M14.1602 10.6152C14.3848 10.6152 14.5703 10.5371 14.7363 10.3711L20.4102 4.67773L22.3438 2.60742L22.1777 6.34766L22.1777 8.51562C22.1777 8.94531 22.5 9.27734 22.9199 9.29688C23.3496 9.31641 23.7207 8.96484 23.7207 8.51562L23.7207 1.09375C23.7207 0.537109 23.4473 0.244141 22.8711 0.244141L15.4102 0.244141C14.9707 0.244141 14.6094 0.615234 14.6289 1.06445C14.6484 1.48438 14.9902 1.80664 15.4102 1.80664L17.6367 1.80664L21.377 1.63086L19.2969 3.56445L13.623 9.24805C13.4375 9.43359 13.3496 9.62891 13.3496 9.86328C13.3496 10.2832 13.7012 10.6152 14.1602 10.6152Z" fill="#ffffff" fill-opacity="0.85"/>
 </g>
</svg>
