<?xml version="1.0" encoding="UTF-8"?>
<!--Generator: Apple Native CoreSVG 232.5-->
<!DOCTYPE svg
PUBLIC "-//W3C//DTD SVG 1.1//EN"
       "http://www.w3.org/Graphics/SVG/1.1/DTD/svg11.dtd">
<svg version="1.1" xmlns="http://www.w3.org/2000/svg" xmlns:xlink="http://www.w3.org/1999/xlink" width="29.7052" height="11.1022">
 <g transform="scale(2)">
  <rect height="11.1022" opacity="0" width="29.7052" x="0" y="0"/>
  <path d="M14.6621 0.0481514C9.33012 0.0481514 4.25199 1.19073 1.6934 3.74932C0.541054 4.91143-0.0546495 6.30792 0.00394421 7.99737C0.0430067 8.96417 0.335975 9.91143 0.931679 10.5169C1.36137 10.9368 1.95707 11.1907 2.67973 11.0735L7.33793 10.2728C7.99223 10.1653 8.47074 9.9505 8.79301 9.638C9.20316 9.24737 9.33988 8.6419 9.33988 7.83135L9.35941 6.56182C9.35941 6.36651 9.43754 6.21026 9.56449 6.08331C9.68168 5.93682 9.85746 5.87823 10.0039 5.83917C10.8243 5.62432 12.5625 5.40948 14.6719 5.40948C16.7813 5.40948 18.5 5.58526 19.3399 5.84893C19.4668 5.888 19.6329 5.95635 19.75 6.07354C19.877 6.2005 19.9454 6.33721 19.9454 6.53253L19.9844 7.83135C19.9942 8.6419 20.1407 9.2376 20.5411 9.638C20.8633 9.96026 21.3418 10.1653 22.0059 10.2728L26.5469 11.0442C27.3086 11.181 27.9434 10.9173 28.4219 10.4388C28.9981 9.87237 29.3204 8.99346 29.3399 7.95831C29.3692 6.26885 28.7149 4.87237 27.5918 3.74932C25.0235 1.19073 20.0137 0.0383858 14.6621 0.0481514Z" fill="#ffffff" fill-opacity="0.85"/>
 </g>
</svg>
