<?xml version="1.0" encoding="UTF-8"?>
<!--Generator: Apple Native CoreSVG 232.5-->
<!DOCTYPE svg
PUBLIC "-//W3C//DTD SVG 1.1//EN"
       "http://www.w3.org/Graphics/SVG/1.1/DTD/svg11.dtd">
<svg version="1.1" xmlns="http://www.w3.org/2000/svg" xmlns:xlink="http://www.w3.org/1999/xlink" width="24" height="24">
 <g transform="scale(1.1)">
  <path d="M11.4941 17.7539C11.9727 17.7539 12.3047 17.4121 12.3047 16.9336L12.3047 10L12.2266 7.53906L13.584 9.0918L15.2734 10.791C15.4199 10.957 15.6152 11.0352 15.8496 11.0352C16.2988 11.0352 16.6406 10.7031 16.6406 10.2637C16.6406 10.0391 16.5625 9.84375 16.416 9.69727L12.1289 5.41992C11.9238 5.21484 11.7383 5.11719 11.4941 5.11719C11.2695 5.11719 11.084 5.20508 10.8789 5.41992L6.58203 9.69727C6.43555 9.84375 6.36719 10.0391 6.36719 10.2637C6.36719 10.7031 6.69922 11.0352 7.14844 11.0352C7.38281 11.0352 7.57812 10.9473 7.72461 10.791L9.42383 9.0918L10.7617 7.54883L10.6836 10L10.6836 16.9336C10.6836 17.4121 11.0254 17.7539 11.4941 17.7539Z" fill="#ffffff" fill-opacity="0.85"/>
 </g>
</svg>
